<svg data-v-fde0c5aa="" xmlns="http://www.w3.org/2000/svg" viewBox="0 0 300 300" class="iconLeft"><!----><defs data-v-fde0c5aa=""><!----></defs><rect data-v-fde0c5aa="" fill="#E1F3FC" x="0" y="0" width="300px" height="300px" class="logo-background-square"></rect><defs data-v-fde0c5aa=""><!----></defs><g data-v-fde0c5aa="" id="81b8f49e-3bf1-49fe-b9e0-df9eb101a616" fill="#012B3D" transform="matrix(2.3122096754724706,0,0,2.3122096754724706,92.96597026544903,128.83171993592865)"><path d="M9.18 4.31L6.23 12.03L3.28 4.31L1.02 4.31L1.02 14L2.55 14L2.55 6.17L5.53 14L6.93 14L9.91 6.17L9.91 14L11.44 14L11.44 4.31ZM16.67 4.31L13.50 4.31L13.50 14L16.67 14C19.61 14 21.64 12.01 21.64 9.14C21.64 6.30 19.61 4.31 16.67 4.31ZM16.66 12.64L15.02 12.64L15.02 5.67L16.66 5.67C18.69 5.67 20.09 7.07 20.09 9.13C20.09 11.21 18.69 12.64 16.66 12.64ZM29.37 4.31L21.91 4.31L21.91 5.67L24.88 5.67L24.88 14L26.40 14L26.40 5.67L29.37 5.67ZM37.97 11.84C37.93 10.61 37.35 9.84 36.37 9.55C37.42 9.16 38.05 8.26 38.05 7.06C38.05 5.38 36.85 4.31 34.96 4.31L30.60 4.31L30.60 14L32.13 14L32.13 10.23L34.93 10.23C35.85 10.23 36.41 10.95 36.44 12.03C36.46 12.82 36.50 13.66 36.57 14L38.16 14C38.05 13.65 38.00 12.74 37.97 11.84ZM34.80 9.00L32.13 9.00L32.13 5.67L34.80 5.67C35.84 5.67 36.48 6.30 36.48 7.32C36.48 8.34 35.84 9.00 34.80 9.00ZM46.58 14L48.23 14L44.46 4.31L42.62 4.31L38.86 14L40.50 14L41.27 11.91L45.81 11.91ZM41.73 10.65L43.54 5.80L45.35 10.65ZM54.84 4.31L51.90 12.46L48.94 4.31L47.35 4.31L51.00 14L52.78 14L56.43 4.31ZM64.26 5.67L64.26 4.31L57.60 4.31L57.60 14L64.26 14L64.26 12.64L59.12 12.64L59.12 9.76L63.84 9.76L63.84 8.46L59.12 8.46L59.12 5.67ZM67.45 12.64L67.45 4.31L65.93 4.31L65.93 14L72.24 14L72.24 12.64Z"></path></g><defs data-v-fde0c5aa=""><linearGradient data-v-fde0c5aa="" gradientTransform="rotate(25)" id="c994dd7d-9d33-4c6f-8455-9ab39f4b5992" x1="0%" y1="0%" x2="100%" y2="0%"><stop data-v-fde0c5aa="" offset="0%" stop-color="#0076DD" stop-opacity="1"></stop><stop data-v-fde0c5aa="" offset="100%" stop-color="#00CDE9" stop-opacity="1"></stop></linearGradient></defs><g data-v-fde0c5aa="" id="95e94b98-f14e-431d-b7a0-01fbf8c9527c" stroke="none" fill="url(#c994dd7d-9d33-4c6f-8455-9ab39f4b5992)" transform="matrix(0.4995387726485775,0,0,0.4995387726485775,38.68321595536784,127.52125497157913)"><path d="M65.488 65.37a3.24 3.24 0 0 1-3.243.518 3.256 3.256 0 0 1-1.24-.899 24.522 24.522 0 0 1-13.282 8.8c2.99-2.082 5.463-5.671 7.121-10.209h5.453c-.021-.096-.063-.182-.074-.279l-.285-2.165H55.63c.841-2.991 1.343-6.308 1.438-9.836h1.574l-.322-2.444h-1.252a44.145 44.145 0 0 0-.396-4.757c-.779.217-1.588.431-2.39.645.174 1.336.302 2.7.344 4.112h-8.61L45.52 51.3h9.105c-.104 3.541-.639 6.884-1.537 9.836H42.795v-5.401l-1.252.875c-.363.257-.772.399-1.192.486v4.04H30.058a34.681 34.681 0 0 1-1.047-4.6c-.267.108-.542.217-.804.329-.524.223-.992.445-1.49.668.219 1.238.477 2.451.798 3.603h-7.807v-.002a38.41 38.41 0 0 0-1.996 1.292 28.69 28.69 0 0 0-1.361 1.023c4.805 9.025 14.303 15.189 25.221 15.189 10.239 0 19.208-5.433 24.25-13.549l-.334.281zm-44.374-1.79h7.188c1.661 4.538 4.13 8.127 7.121 10.209A24.538 24.538 0 0 1 21.114 63.58zm19.237 9.686c-3.883-.645-7.27-4.322-9.421-9.686h9.421v9.686zm2.444-9.686h9.421c-2.149 5.361-5.54 9.041-9.421 9.686V63.58z"></path><path d="M87.363 24.459c-3.995-2.627-12.348-.773-21.615 2.803L49.466 11.36l-5.485.188L57.07 30.955c-5.385 2.476-10.719 5.232-15.396 7.779l-6.756-5.102-2.806.327 6.977 8.789.601 11.208 2.317-1.617 1.677-8.297c5.19-1.188 11.015-2.66 16.687-4.372l3.053 23.206 4.232-3.495 1.654-22.695c9.318-3.467 16.801-7.614 18.053-12.227z"></path><path d="M48.527 24.071l-1.348-1.999a28.669 28.669 0 0 0-5.61-.56c-14.262 0-26.082 10.519-28.192 24.199a86.52 86.52 0 0 1 5.021-3.501c.37-1.097.789-2.173 1.308-3.194h3.933a139.746 139.746 0 0 1 4.406-2.444h-6.933a24.535 24.535 0 0 1 14.31-10.209c-1.592 1.11-3.032 2.657-4.287 4.538.197-.063.393-.13.604-.153l2.806-.327.052-.001c1.697-1.917 3.647-3.184 5.752-3.532v6.794l1.615 1.221c.282-.151.549-.284.829-.435v-7.58c2.373.393 4.56 1.933 6.396 4.285l3.166-1.505-3.828-5.597z"></path><path d="M35.919 43.951l-4.397-5.538c-2.987 1.531-6.322 3.345-9.807 5.517-3.892 2.446-7.978 5.27-11.725 8.869-1.86 1.813-3.648 3.828-5.098 6.258-.717 1.217-1.339 2.549-1.767 3.991-.115.353-.192.733-.28 1.101-.047.183-.069.375-.104.563l-.102.681-.003.832.023 1.226c.107 1.477.501 3.049 1.285 4.42.766 1.383 1.916 2.446 3.06 3.128 2.327 1.363 4.509 1.586 6.388 1.697 3.773.115 6.669-.5 8.695-.902a80.261 80.261 0 0 0 1.612-.361c-5.88-.309-9.543-1.719-11.51-2.787a8.065 8.065 0 0 1-1.528-.977 5.157 5.157 0 0 1-.317-.263l.038-.003c-.121-.115-.262-.223-.364-.346-.886-1.059-.909-2.021-.595-3.401.054-.142.101-.271.14-.405l.239-.799.008-.023c.022-.125-.022.141-.016.106l.013-.028.022-.063.044-.121c.033-.079.051-.159.092-.242.079-.163.133-.326.228-.491a10.44 10.44 0 0 1 1.348-2.008c1.127-1.343 2.652-2.629 4.323-3.804 3.372-2.351 7.309-4.276 11.085-5.885 3.284-1.394 6.455-2.523 9.317-3.473l-.347-6.469z"></path></g><!----></svg>