<svg data-v-423bf9ae="" xmlns="http://www.w3.org/2000/svg" viewBox="0 0 440.9906953279409 60" class="font"><!----><!----><!----><g data-v-423bf9ae="" id="a7e3a4ab-2e7f-463a-8aa5-a4719f08141b" fill="black" transform="matrix(6.191950123131256,0,0,6.191950123131256,-6.315794893660751,-26.68730515322664)"><path d="M9.18 4.31L6.23 12.03L3.28 4.31L1.02 4.31L1.02 14L2.55 14L2.55 6.17L5.53 14L6.93 14L9.91 6.17L9.91 14L11.44 14L11.44 4.31ZM16.67 4.31L13.50 4.31L13.50 14L16.67 14C19.61 14 21.64 12.01 21.64 9.14C21.64 6.30 19.61 4.31 16.67 4.31ZM16.66 12.64L15.02 12.64L15.02 5.67L16.66 5.67C18.69 5.67 20.09 7.07 20.09 9.13C20.09 11.21 18.69 12.64 16.66 12.64ZM29.37 4.31L21.91 4.31L21.91 5.67L24.88 5.67L24.88 14L26.40 14L26.40 5.67L29.37 5.67ZM37.97 11.84C37.93 10.61 37.35 9.84 36.37 9.55C37.42 9.16 38.05 8.26 38.05 7.06C38.05 5.38 36.85 4.31 34.96 4.31L30.60 4.31L30.60 14L32.13 14L32.13 10.23L34.93 10.23C35.85 10.23 36.41 10.95 36.44 12.03C36.46 12.82 36.50 13.66 36.57 14L38.16 14C38.05 13.65 38.00 12.74 37.97 11.84ZM34.80 9.00L32.13 9.00L32.13 5.67L34.80 5.67C35.84 5.67 36.48 6.30 36.48 7.32C36.48 8.34 35.84 9.00 34.80 9.00ZM46.58 14L48.23 14L44.46 4.31L42.62 4.31L38.86 14L40.50 14L41.27 11.91L45.81 11.91ZM41.73 10.65L43.54 5.80L45.35 10.65ZM54.84 4.31L51.90 12.46L48.94 4.31L47.35 4.31L51.00 14L52.78 14L56.43 4.31ZM64.26 5.67L64.26 4.31L57.60 4.31L57.60 14L64.26 14L64.26 12.64L59.12 12.64L59.12 9.76L63.84 9.76L63.84 8.46L59.12 8.46L59.12 5.67ZM67.45 12.64L67.45 4.31L65.93 4.31L65.93 14L72.24 14L72.24 12.64Z"></path></g><!----><!----></svg>