<svg id="Layer_1" data-name="Layer 1" xmlns="http://www.w3.org/2000/svg" viewBox="0 0 280 84.83"><defs><style>.cls-1{fill:#005bab;}</style></defs><path class="cls-1" d="M42.67,160.45c-2.8-1.82-6.55-3-12.59-4.54-1.87-.48-3.82-1.55-4.42-2.91-1.61,1.62-1.9,5.26-1.61,7.38.32,2.46,3.19,6.51,7.5,6.67a33.56,33.56,0,0,0,7.56-.91c2.76-.6,7.12,1.13,7.81,4.5H48.2A12.34,12.34,0,0,0,42.67,160.45Z" transform="translate(-9.58 -107.12)"/><path class="cls-1" d="M46.11,182.24c-.08.65-.27,1.18-1.07,1.12s-.78-.84-.72-1.35l.59-4.66-1.37-.16-.6,4.77c-.1,1.53.3,2.3,2,2.51s2.25-.45,2.54-2l.58-4.78-1.36-.16Z" transform="translate(-9.58 -107.12)"/><path class="cls-1" d="M39.62,176.63l-2.35-.53-1.48,6.8,1.39.3.61-2.91.37.07a2.54,2.54,0,0,1,.81.25c.41.21.28.78.2,1.19a7.42,7.42,0,0,0-.22,1.75l1.43.37v-.2c-.27-.27.12-1.93.17-2.21.13-.63.07-1-.65-1.26h0c.87.05,1.22-.72,1.33-1.44C41.42,177.54,41,176.93,39.62,176.63Zm.32,2c-.11.68-.42,1-1,.9l-.93-.26.39-1.83,1,.2C39.91,177.72,40.05,178,39.94,178.59Z" transform="translate(-9.58 -107.12)"/><path class="cls-1" d="M52.7,114.1h0Z" transform="translate(-9.58 -107.12)"/><path class="cls-1" d="M33.12,174.93c-2-.54-2.46.68-3,2.35l-.26,1c-.49,1.77-.7,3.1,1.34,3.65a1.29,1.29,0,0,0,1.42-.59h0l-.21.76.94.25,1-3.58-2-.65-.3,1.07.87.23c-.26,1-.69,1.71-1.39,1.52-.86-.23-.67-1.15-.51-1.7l.51-1.85c.13-.51.37-1.69,1.34-1.43s.74.81.57,1.49l1.25.34a3.91,3.91,0,0,0,.15-.83C34.84,175.69,34.18,175.23,33.12,174.93Z" transform="translate(-9.58 -107.12)"/><path class="cls-1" d="M286.53,114.15H253.4l-11.86,21.21h5L221.12,184.8h25.22l5.08-12.11h16l.55,12.11h21.66Zm-28.17,42.38,7.81-18.76.66,18.76Z" transform="translate(-9.58 -107.12)"/><path class="cls-1" d="M50.78,157.15C50.86,143.73,41.13,134.26,35,135c-4.26.37-7.83,2.11-9.74,7.12-1.78,4.66-.19,10.86,5.71,12.31,6.31,1.57,10,2.87,12.65,4.7a14.39,14.39,0,0,1,6,11.52h1.22C50.83,167.27,50.87,158.26,50.78,157.15Z" transform="translate(-9.58 -107.12)"/><path class="cls-1" d="M52,157c.14,5.85.13,11.61.16,13.66h1.61c0-2.14-.09-8.27,0-13.84.11-7.35,1.82-12,4.86-16,2-2.69,7.67-6.46,7.68-13.5,0-8.3-6.18-13.12-13.41-13.2-7.24.08-13.45,4.9-13.43,13.2,0,7,5.67,10.81,7.68,13.5C50.17,144.85,51.82,149.65,52,157Z" transform="translate(-9.58 -107.12)"/><path class="cls-1" d="M62.14,180.45v0a1.47,1.47,0,0,0,.74-1.6,1.92,1.92,0,0,0-.45-1.13,1.7,1.7,0,0,0-1.48-.36l-2.27.34.94,6.84,2.25-.31c.91-.12,1.45-.41,1.6-1.31a4.73,4.73,0,0,0,0-1C63.32,181,62.87,180.45,62.14,180.45Zm-2-2,.59-.09c.64-.13.8.18.9.68a1,1,0,0,1-.14.77c-.16.28-.57.32-.87.36l-.25,0Zm1.71,4.7a2,2,0,0,1-.75.19l-.28,0-.31-2.06.49-.07c.79-.12,1,.16,1.1.91C62.13,182.43,62.15,182.89,61.83,183.1Z" transform="translate(-9.58 -107.12)"/><path class="cls-1" d="M69.48,180.5l-1.28.25c.06.45.37,1.54-.33,1.68-.87.18-1.09-.73-1.2-1.29l-.38-1.88c-.1-.52-.43-1.77.57-1.89.56-.06.75.7.89,1.13l1.24-.25a2.93,2.93,0,0,0-.13-.51,1.73,1.73,0,0,0-2.21-1.38c-2,.4-1.9,1.7-1.61,3.43l.19,1c.37,1.8.77,3.09,2.83,2.69,1.42-.28,1.65-1.32,1.46-2.57C69.51,180.77,69.49,180.62,69.48,180.5Z" transform="translate(-9.58 -107.12)"/><path class="cls-1" d="M88,115.45l-.29-.13a84.21,84.21,0,0,0-35-8.2A81.82,81.82,0,0,0,18,114.69l-.29.14-.15.29A77,77,0,0,0,9.58,149a79.39,79.39,0,0,0,8,34.37l.14.29.29.14c11.72,5.45,23.47,8.2,34.88,8.2a83.53,83.53,0,0,0,34.84-7.56l.3-.14.14-.29a77.09,77.09,0,0,0,8.08-33.83,79.49,79.49,0,0,0-8.19-34.38Zm-1.27,67.44a81.55,81.55,0,0,1-33.76,7.26c-11,0-22.41-2.65-33.8-7.89A77.63,77.63,0,0,1,11.41,149,75.2,75.2,0,0,1,19,116.18a79.9,79.9,0,0,1,33.6-7.28,82.18,82.18,0,0,1,33.94,7.91,77.59,77.59,0,0,1,7.88,33.32A75.13,75.13,0,0,1,86.69,182.89Z" transform="translate(-9.58 -107.12)"/><path class="cls-1" d="M71,175.54l.43,7.08,1.32-.39-.18-1.78,1.45-.44.83,1.57,1.31-.39L72.7,175Zm1.44,3.77-.34-3.17,1.4,2.86Z" transform="translate(-9.58 -107.12)"/><path class="cls-1" d="M75.66,155.91c-6,1.53-9.79,2.72-12.59,4.54a12.33,12.33,0,0,0-5.52,10.2h1.26c.7-3.37,5.07-5.1,7.82-4.5a33.66,33.66,0,0,0,7.57.91c4.3-.16,7.16-4.21,7.5-6.67.28-2.12,0-5.76-1.62-7.38C79.49,154.36,77.54,155.43,75.66,155.91Z" transform="translate(-9.58 -107.12)"/><path class="cls-1" d="M62.12,159.13c2.68-1.83,6.35-3.13,12.67-4.7,5.88-1.45,7.48-7.65,5.71-12.31-1.92-5-5.49-6.75-9.74-7.12-6.15-.74-15.87,8.73-15.8,22.15-.08,1.11-.05,10.12-.05,13.49h1.4A14.3,14.3,0,0,1,62.12,159.13Z" transform="translate(-9.58 -107.12)"/><path class="cls-1" d="M52.49,177.85l-2.63,0-.17,6.84,1.35,0,.06-2.86.87,0a2.32,2.32,0,0,0,1.44-.4,2.08,2.08,0,0,0,.68-1.63C54.09,178.86,53.73,177.86,52.49,177.85Zm-.69,3h-.69l.06-2h.55c.73,0,1,.13,1,.92S52.37,180.81,51.8,180.81Z" transform="translate(-9.58 -107.12)"/><path class="cls-1" d="M162,148.08c7.33-3.68,14-10.81,14-18.87,0-8.74-6.32-14.79-17.52-14.86-9.1-.06-30.7,0-30.7,0l-10.47,21.13,5.31,0L110.29,184.8h33.09c15.17,0,26.84-10.82,26.84-22.39C170.22,157.62,169.57,150.84,162,148.08Zm-11.19,13.59c-1,3.77-5.18,5.27-8.22,5.27h-7.75l3-11.58h8A4.92,4.92,0,0,1,150.83,161.67Zm3.68-24.23c-1,4.46-5.11,5-7.43,5h-6l2.4-10,6.47,0C151.79,132.46,155.63,132.59,154.51,137.44Z" transform="translate(-9.58 -107.12)"/><path class="cls-1" d="M211.76,167.4c-13.39,0-16.66-8.6-16.66-14.44,0-7.87,5.54-19,20.59-19a23.86,23.86,0,0,1,15.41,5.73l10.82-19.54-15.3-7.23-2.08,1.82a10.63,10.63,0,0,0-5.29-1.3c-29.3,0-46.41,24.06-46.42,43.86,0,15,9.1,29.62,33,28.9a36.93,36.93,0,0,0,12.5-2.42l10.74-22A32.16,32.16,0,0,1,211.76,167.4Z" transform="translate(-9.58 -107.12)"/></svg>