<svg xmlns="http://www.w3.org/2000/svg" viewBox="0 0 749.99 217.21"><defs><style>.cls-1{fill:#fff;}.cls-2{fill:#f15a22;}.cls-2,.cls-3{fill-rule:evenodd;}.cls-3{fill:#006885;}</style></defs><g id="cdr_layer2"><rect class="cls-1" width="206.35" height="205.6"/><path class="cls-2" d="M668.12-509.49,690-527.17c-3.63-4.58-7.09-9.29-10.4-14.06-25.4-36.65-40.36-74-29.52-107H585.45v35.64Z" transform="translate(-585.45 648.24)"/><path class="cls-2" d="M702.7-562.79c1.36-11.62,4.87-33.59,26.23-49.87,18.5-14.1,41.61-16.8,62.11-8.1v-27.48H677C669.42-614.77,689.23-578,702.7-562.79Z" transform="translate(-585.45 648.24)"/><path class="cls-2" d="M730.35-596.3l-.08.06c-21.46,17.42-16.18,44.79,3.77,69.34,15.42,19,36,32.29,57,22.21v-80.9C772.2-604.88,749.57-611.92,730.35-596.3Z" transform="translate(-585.45 648.24)"/><polygon class="cls-2" points="0 77.82 0 205.6 0.01 205.6 62.22 155.29 0 77.82"/><path class="cls-2" d="M698.57-517c-6.07,5-13.64,11.2-22.05,18l8.07,10.06c11.72,14.62,28.79,39.9,50,33.06l.78,1-15,12.28H791V-491.3C754.64-471.5,723.38-489.51,698.57-517Z" transform="translate(-585.45 648.24)"/><path class="cls-2" d="M664.43-472.08l-8.36-10.42c-17.14,13.77-35.23,28.22-49.85,39.86h79.17C680.24-453.57,670.89-464,664.43-472.08Z" transform="translate(-585.45 648.24)"/><path class="cls-3" d="M962.34-562.34c18.93-3.31,31.23-19.69,31.23-40.62,0-27.78-24.05-45.28-65.28-45.28H846.73v.93c16.65,9.15,16.28,23.89,16.28,37.94v127.5c0,14.35.37,29.25-16.28,38.23v.93H886c38.38,0,67.76.66,89.77-9.67,23.32-11,37.5-30.62,37.5-54.67C1013.27-537.66,990.45-556.4,962.34-562.34ZM895-629.3l25.79.44c19.14,0,38.73,9.36,38.73,30.92,0,25.61-17.3,32.48-42,32.48l-22.52.05V-629.3Zm24.87,165.45-24.87,0V-546l26.73-.1c31.15,0,56.85,11.57,56.85,41.86C978.58-474.55,951.6-463.85,919.87-463.85Z" transform="translate(-585.45 648.24)"/><path class="cls-3" d="M1075.77-481.83c0,17.5-.32,30,16.24,39.67v.94h-55.29v-.94c16.57-9.67,16.28-22.17,16.28-39.67v-124.9c0-17.5.29-31.21-16.25-40.58v-.93h45.89v.31c1.25,3.75,3.25,5.81,4.7,7.81s4.36,6.24,4.36,6.24L1197-492v-116c0-17.5.32-30-16.25-39.37v-.93h55v.93c-16.24,9.37-16.24,21.87-16.24,39.37V-431c-10-4-38-27.27-58-54.08C1125.76-533.18,1075.77-600,1075.77-600Z" transform="translate(-585.45 648.24)"/><path class="cls-3" d="M1286.94-611c0-14.37-.21-27.15-16.18-36.31v-.93h64.68v.93c-16,8.89-16.16,22.25-16.16,36.31v131.41c0,14-.36,28.21,16.16,37.4v.93h-64.68v-.93c16.62-9.29,16.18-23.26,16.18-37.3Z" transform="translate(-585.45 648.24)"/></g></svg>