<svg id="Layer_1" data-name="Layer 1" xmlns="http://www.w3.org/2000/svg" viewBox="0 0 1314.47 274.24"><defs><style>.cls-1{fill:#034ea2;fill-rule:evenodd;}</style></defs><path class="cls-1" d="M348,403H552.24c25.3,0,46,18.9,46,42V635.23c0,23.1-20.7,42-46,42H348c-25.3,0-46-18.91-46-42V445c0-23.1,20.7-42,46-42Zm4.94,19.51h36.23a56.41,56.41,0,0,1,23.5,18.21c6.64,9,9.54,19,7.51,27.39-.06.24-.17.64-.34,1.19-5,16.37-22,31.43-39.39,46.74-5,4.42-10,8.86-15,13.53l-10.24,9.61,10.36,9.48h0l0,0c4.92,4.61,9.9,9,14.86,13.38,17.34,15.32,34.38,30.37,39.39,46.75.17.55.28.94.34,1.19,2,8.37-.87,18.4-7.51,27.38a57.07,57.07,0,0,1-29.54,20.38H352.94a18.43,18.43,0,0,1-18.35-18.42V440.94a18.44,18.44,0,0,1,18.35-18.43Zm82,0h36.55A56.41,56.41,0,0,1,495,440.72c6.64,9,9.54,19,7.51,27.39-.06.24-.17.64-.34,1.19-5,16.37-22.05,31.43-39.39,46.74-5,4.42-10,8.86-15,13.53l-10,9.38,9.94,9.49L558.31,654a18.22,18.22,0,0,1-11,3.7H433.13c1.49-1.68,2.88-3.41,4.18-5.17,11.06-15,15.63-32.67,11.81-48.44-.24-1-.48-1.88-.69-2.57C441.23,578,421.3,560.36,401,542.46L397.15,539l3.87-3.42c20.28-17.91,40.21-35.51,47.41-59.08q.33-1,.69-2.58c3.82-15.76-.75-33.47-11.81-48.43-.74-1-1.53-2-2.34-3Zm82.35,0h30a18.45,18.45,0,0,1,18.36,18.43V621.79l-86.43-82.52,4.14-3.66c20.28-17.91,40.21-35.51,47.41-59.08q.33-1,.69-2.58c3.82-15.76-.75-33.47-11.8-48.43-.76-1-1.54-2-2.35-3Z" transform="translate(-302 -403)"/><path class="cls-1" d="M1084.12,477.55h38.35v55l47.9-55H1216l-52.39,58.56,54.91,67.82H1169.9l-47.43-59.13v59.13h-38.35V477.55Zm-152.27,0h52.94l45.84,93.39V477.55h33.86V603.93h-53.13l-45.65-94.78v94.78H931.85V477.55Zm-112.24,0h49.06l57.11,126.38H879.94l-9.66-27.53h-56.9l-9.45,27.53H761.1l58.51-126.38Zm39.62,77-17.3-51-19.1,51Zm-216.56-77h62.27l10.79.52A73.15,73.15,0,0,1,731,480.52a52.69,52.69,0,0,1,18.8,9.07q8.58,6.46,9.74,19.73v.61a1.25,1.25,0,0,0,.19.61v1.22q0,10.49-8.29,17.9t-22.18,8.46a.41.41,0,0,1,.3.09.41.41,0,0,0,.28.09,70.41,70.41,0,0,1,22.56,10.12q10.21,7,10.22,21.3,0,18.51-14.56,26.36t-43.08,7.85H642.67V477.55Zm39.52,101.6H703.4q8.67.17,12.72-2.88a12.66,12.66,0,0,0,5-6.72,11,11,0,0,0,.29-1.32,7.62,7.62,0,0,0,.1-1.3,14.1,14.1,0,0,0-.19-2.19,9.34,9.34,0,0,0-.77-2.35,15.3,15.3,0,0,0-5.12-6.2q-3.75-2.88-10.5-2.88l-22.75-.17v26Zm0-52.2h19.67q9,.18,12.91-3t3.86-9.25A11,11,0,0,0,714.2,506q-4.46-3.66-12.34-3.66l-19.67-.18V527Z" transform="translate(-302 -403)"/><path class="cls-1" d="M1576.62,477.55h39.85V603.93h-39.85V477.55Zm-144.47,0h62.78a10.18,10.18,0,0,0,1.85.17h1.84a104.18,104.18,0,0,1,36.35,6.81q16.53,6.47,16.53,26.18,0,15.38-9.92,22.44a54.12,54.12,0,0,1-23.71,9.16q20.81.71,25.76,12.57c6.76,16.21,12.69,33.29,19.19,49h-42.76c-5.62-11.4-10.68-27.42-15.22-39.62q-3.1-8.38-14.58-8.38l-18.27-.18v48.18h-39.84V477.55Zm39.84,26v27.58h15.36a10.08,10.08,0,0,0,1.84.17h1.86a37.28,37.28,0,0,0,13.21-3q6-2.62,6-10.83a11.07,11.07,0,0,0-6.22-10.47q-6.22-3.32-15.36-3.32l-16.72-.17Zm-179-26h62.78l10.89.52a74.45,74.45,0,0,1,15.35,2.45,53.29,53.29,0,0,1,19,9.07q8.67,6.46,9.82,19.73v.61a1.37,1.37,0,0,0,.19.61c0,.23,0,.44,0,.61s0,.38,0,.61q0,10.49-8.35,17.9t-22.36,8.46a.45.45,0,0,1,.3.09.38.38,0,0,0,.28.09,71.31,71.31,0,0,1,22.75,10.12q10.31,7,10.3,21.3,0,18.51-14.67,26.36t-43.45,7.85H1293V477.55Zm39.84,101.6h21.39q8.74.17,12.82-2.88a12.68,12.68,0,0,0,5.06-6.72,11,11,0,0,0,.29-1.32,8.8,8.8,0,0,0,.1-1.3,13,13,0,0,0-.2-2.19,9,9,0,0,0-.78-2.35,15.28,15.28,0,0,0-5.14-6.2q-3.8-2.88-10.6-2.88l-22.94-.17v26Zm0-52.2h19.83q9.13.18,13-3t3.89-9.25a11,11,0,0,0-4.46-8.73q-4.48-3.66-12.45-3.66l-19.83-.18V527Z" transform="translate(-302 -403)"/></svg>