<svg id="Layer_1" data-name="Layer 1" xmlns="http://www.w3.org/2000/svg" viewBox="0 0 580.11 84.4"><defs><style>.cls-1{fill:#7b141f;}.cls-2{fill:#e2071f;}.cls-2,.cls-3{fill-rule:evenodd;}.cls-3{fill:#fff;}</style></defs><rect class="cls-1" width="91.41" height="84.4"/><polygon class="cls-2" points="11.52 14.73 60.5 14.73 84.98 42.06 60.5 71.96 11.52 71.96 33.45 42.06 11.52 14.73"/><polyline class="cls-3" points="84.98 42.06 60.5 14.73 11.52 14.73 33.45 42.06"/><path class="cls-1" d="M183.69,226.26a13.65,13.65,0,0,0-10.88-4.66c-9.58,0-16.65,7.72-16.65,18.31s7.07,18.33,16.25,18.33a13.82,13.82,0,0,0,11.85-6.11l10.55,7.78c-4.79,6.75-12.9,9.89-20.79,9.89-17.94,0-31-11.64-31-29.89S156.08,210,174,210c6.43,0,14.54,2.18,19.42,8.36Z" transform="translate(-30.36 -195.9)"/><rect class="cls-1" x="171.21" y="15.59" width="12.66" height="56.86"/><polygon class="cls-1" points="195.38 15.58 214.56 15.58 227.79 52.69 227.96 52.69 241.28 15.58 260.35 15.58 260.35 72.44 247.7 72.44 247.7 28.84 247.54 28.84 232.42 72.44 222.77 72.44 208.23 28.84 208.05 28.84 208.05 72.44 195.38 72.44 195.38 15.58"/><path class="cls-1" d="M302.42,211.48h21.44c10.07,0,21,2.1,21,14.46,0,6.34-4,10.67-9.89,12.52v.18c7.54,1,12.59,6.5,12.59,13.89,0,11.88-11.39,15.82-21.63,15.82H302.42Zm12.66,22.74h9.18c3.89,0,8-1.61,8-6.18,0-4.74-4.55-5.94-8.54-5.94h-8.61Zm0,23.53h11.38c4,0,8.44-1.69,8.44-6.66,0-5.38-6.09-6.28-10.22-6.28h-9.6Z" transform="translate(-30.36 -195.9)"/><polygon class="cls-1" points="333.33 16.5 341.69 16.5 374 62.85 374.17 62.85 374.17 16.5 380.79 16.5 380.79 72.32 372.43 72.32 340.12 25.95 339.98 25.95 339.98 72.32 333.33 72.32 333.33 16.5"/><rect class="cls-1" x="394.66" y="16.5" width="6.64" height="55.82"/><path class="cls-1" d="M463.67,212.4h6.22l23.74,55.82h-7.74l-5.67-13.72H452.31l-5.76,13.72h-7.49Zm3,8.51h-.16l-11.58,27.43h22.77Z" transform="translate(-30.36 -195.9)"/><path class="cls-1" d="M548.5,264.43a42.84,42.84,0,0,1-20.9,5.19c-17.33,0-29.8-11.81-29.8-29.33s13.32-29.32,30-29.32c7.33,0,14.44,2,19.72,7.34l-5,5.2a21,21,0,0,0-15.24-6.38c-12.76,0-22.47,9.61-22.47,23.16,0,13.34,9.4,23.2,23.13,23.2a32.7,32.7,0,0,0,13.86-3.24V243.13H529V237H548.5Z" transform="translate(-30.36 -195.9)"/><path class="cls-1" d="M580.51,212.4h6.23l23.73,55.82h-7.73l-5.69-13.72h-27.9l-5.77,13.72h-7.47Zm3,8.51h-.15l-11.58,27.43h22.78Z" transform="translate(-30.36 -195.9)"/></svg>