<svg id="Layer_1" data-name="Layer 1" xmlns="http://www.w3.org/2000/svg" viewBox="0 0 280 81.69"><defs><style>.cls-1{fill:#108de8;}</style></defs><path class="cls-1" d="M205.27,157.83c0-3.59,0-7.18,0-10.76a17.38,17.38,0,0,1,34.56-2.86,21.83,21.83,0,0,1,.23,3.23c0,7.44,0,14.89,0,22.33,0,.81-.22,1-1,1q-3.4-.08-6.8,0c-.77,0-1-.21-1-1q0-11.27,0-22.53a8.66,8.66,0,1,0-17.31-.13c0,4.19,0,8.39,0,12.58,0,3.35,0,6.7,0,10.05,0,.82-.25,1-1,1q-3.39-.08-6.8,0c-.78,0-.95-.23-.94-1C205.29,165.81,205.27,161.82,205.27,157.83Z" transform="translate(-10 -109.15)"/><path class="cls-1" d="M85.68,131a39.78,39.78,0,0,0-56.84-15.68C10.51,127,4.54,151.63,15.46,170.56A40,40,0,0,0,58.6,189.92,40.79,40.79,0,0,0,90.26,150,41.8,41.8,0,0,0,85.68,131ZM73.54,150.13v11c0,1.4-.17,1.5-1.34.8-4.75-2.81-9.77-2.81-14.91-1.44-4.44,1.19-8.68,3-13.08,4.3-4.14,1.23-8.32,1.83-12.57.49a18.33,18.33,0,0,1-3.59-1.61,2.4,2.4,0,0,1-1.34-2.22c0-.68,0-1.35,0-2q0-9.13,0-18.27c0-.74,0-1.49.07-2.23,0-.93.31-1.08,1.12-.54a15.55,15.55,0,0,0,8.37,2.72,27.38,27.38,0,0,0,10.05-2.13c4.19-1.53,8.28-3.31,12.6-4.45A15.75,15.75,0,0,1,72,136.39a3,3,0,0,1,1.51,2.78C73.51,142.82,73.54,146.48,73.54,150.13Z" transform="translate(-10 -109.15)"/><path class="cls-1" d="M290,147.06a17.61,17.61,0,0,0-.83-5.29c-2.56-8-10.4-13.22-18.41-12.22a17.41,17.41,0,0,0-15.48,16.2c-.22,3.94,0,7.91,0,11.87h-.08c0,4.06,0,8.12,0,12.18,0,.75.18,1,1,1,2.3-.05,4.6,0,6.9,0,.72,0,.91-.22.9-.92,0-2.37,0-4.74,0-7.11,0-.65.19-.87.86-.87q7.86,0,15.74,0c.63,0,.79.21.78.82,0,2.37,0,4.74,0,7.1,0,.72.12,1,.92,1,2.3-.06,4.6-.05,6.9,0,.79,0,.94-.23.94-1C290,162.22,290,154.64,290,147.06Zm-9.53,6c-2.64,0-5.27,0-7.91,0s-5.14,0-7.7,0c-.78,0-1-.24-1-1,.06-1.89-.07-3.8.09-5.67a8.6,8.6,0,0,1,8.84-8,8.7,8.7,0,0,1,8.4,8.28c.11,1.88,0,3.78.05,5.67C281.28,153,280.93,153,280.45,153Z" transform="translate(-10 -109.15)"/><path class="cls-1" d="M190.1,157.88c0-3.55,0-7.1,0-10.66a19.27,19.27,0,0,0-.19-2.73,17.48,17.48,0,0,0-18.45-15c-8.51.39-15.89,7.93-16.1,16.78-.18,7.91,0,15.83-.06,23.75,0,.59.2.74.76.73,2.4,0,4.8,0,7.2,0,.64,0,.8-.21.79-.82,0-2.4,0-4.81,0-7.21,0-.65.17-.87.84-.87q7.81,0,15.64,0c.74,0,.89.27.88.94,0,2.37,0,4.74,0,7.11,0,.67.2.86.86.85,2.33,0,4.67-.05,7,0,.73,0,.91-.21.9-.91C190.09,165.87,190.1,161.87,190.1,157.88ZM180.57,153c-2.61,0-5.22,0-7.82,0s-5.21,0-7.82,0c-.72,0-.94-.21-.9-.91.12-2.29-.24-4.61.24-6.88a8.63,8.63,0,0,1,17.07,1.42c.08,1.86,0,3.72,0,5.58C181.4,152.88,181.17,153,180.57,153Z" transform="translate(-10 -109.15)"/><path class="cls-1" d="M120,129.48c-4.53,0-9.07,0-13.6,0-.89,0-1,.28-1,1.08,0,6.53,0,13.06,0,19.59s0,13.12,0,19.68c0,.77.2,1,.95,1,4.6,0,9.21,0,13.81,0a17.11,17.11,0,0,0,3.42-.35c9.37-1.85,15.82-9.21,16.62-18.94A20.46,20.46,0,0,0,120,129.48Zm11.37,22.33a11.59,11.59,0,0,1-11.29,10c-1.73,0-3.45,0-5.18,0-.63,0-.79-.18-.78-.8,0-3.65,0-7.31,0-11s0-7.11,0-10.66c0-.87.25-1.08,1.07-1,2.59.15,5.21-.27,7.77.43A11.73,11.73,0,0,1,131.36,151.81Z" transform="translate(-10 -109.15)"/></svg>