<svg id="Layer_1" data-name="Layer 1" xmlns="http://www.w3.org/2000/svg" viewBox="0 0 280 91.81"><defs><style>.cls-1{fill:#4c3494;}</style></defs><path class="cls-1" d="M55.17,195.25c-25.34.23-45.56-19.8-45.59-45.79s20.33-46,45.6-46c24.86,0,45.44,19.79,45.36,46.05C100.47,175.4,80.29,195.44,55.17,195.25ZM26.62,149.9c.15,1.54.32,3.56.56,5.57a22,22,0,0,0,.56,2.68c3,12.11,12.73,21.07,25,21.95,9.72.7,17.78-2.67,23.86-10.27,8.2-10.22,9.13-25.62,2.48-37.26a27.5,27.5,0,0,0-39.18-9.49C30.61,129.29,26.92,138.53,26.62,149.9Z" transform="translate(-9.58 -103.5)"/><path class="cls-1" d="M244.12,103.57c24.62-.37,45.5,19.25,45.46,45.88-.05,26.27-20.21,45.26-44.2,45.83-26.49.64-46.84-20-46.77-46S219,103.26,244.12,103.57Zm28.63,45.89c-.42-2.85-.64-5.75-1.3-8.54-2.95-12.51-12.73-21.11-24.32-22.17-10-.92-18.64,2.3-24.67,10.39-8.46,11.35-9.14,23.8-2.79,36.3,8.47,16.65,31,19.92,44.07,6.61C269.85,165.83,272.39,158.11,272.75,149.46Z" transform="translate(-9.58 -103.5)"/><path class="cls-1" d="M104.21,105.93h3.18c10.47,0,20.94,0,31.42,0,1.4,0,2,.29,1.91,1.84-.12,3.7-.1,7.42,0,11.13,0,1.49-.3,2.09-1.93,2-2.21-.15-4.43,0-6.94,0,7,16.52,13.85,32.79,20.81,49.28l20.1-49.25h-8.62V106H193c-.31,3.52.61,7-.89,10.49-7.27,16.86-14.42,33.77-21.62,50.66-3.76,8.82-7.56,17.62-11.25,26.47a2.37,2.37,0,0,1-2.59,1.64c-5.65.19-10.31-1.78-13.54-6.42a39.28,39.28,0,0,1-3.45-6.93q-12.9-29.67-25.72-59.37a2.46,2.46,0,0,0-2.83-1.79c-1.87.15-3.76,0-5.64,0-.89,0-1.29-.21-1.28-1.18C104.23,115.18,104.21,110.7,104.21,105.93Z" transform="translate(-9.58 -103.5)"/></svg>