<svg id="Layer_1" data-name="Layer 1" xmlns="http://www.w3.org/2000/svg" viewBox="0 0 408.18 101.68"><defs><style>.cls-1{fill:#0096b8;}.cls-2{fill:#005675;}.cls-3{fill:#0bbbef;}.cls-4{fill:#007290;}.cls-5{fill:#81b73e;}.cls-6{fill:#69931d;}.cls-7{fill:#277933;}.cls-8{fill:#aecc53;}.cls-9{fill:#e4032e;}.cls-10{fill:#b51227;}.cls-11{fill:#791b15;}.cls-12{fill:#ea5160;}</style></defs><path d="M336,443.05c0-3.92-1.46-6.7-4.29-8.26a12.28,12.28,0,0,0-3.27-1,24.06,24.06,0,0,0-4.33-.36h-5.7v19.67h5.7c4.12,0,7.13-.75,9-2.37a7.2,7.2,0,0,0,2.15-3.14,13,13,0,0,0,.75-4.53m-17.59-27.89V432h5.92c6.88,0,10.45-2.9,10.48-8.62.05-5.56-3.7-8.27-11-8.23Zm-4.66,35.26c0-.63.07-1.64.1-3V420.84l-.09-2.57c0-.55,0-.92-.07-1.12a3.71,3.71,0,0,0-.13-.55,2.2,2.2,0,0,0-1.31-1.39,7.39,7.39,0,0,0-2.69-.39v-.9h15.17a38.48,38.48,0,0,1,6,.44,16.3,16.3,0,0,1,4.3,1.18,7.74,7.74,0,0,1,4.72,7.63c0,5.15-3.35,8.43-10.35,9.28l-1.18.19a28.16,28.16,0,0,1,4.7.81,12.61,12.61,0,0,1,2.9,1.08,9.29,9.29,0,0,1,5.51,9c0,5-2.43,8.27-7.39,9.81a25.32,25.32,0,0,1-4.09.74,52.38,52.38,0,0,1-5.37.27H309.57v-.91c1.76,0,3-.29,3.49-.91a1.89,1.89,0,0,0,.49-.72,5,5,0,0,0,.21-1.37" transform="translate(-100.27 -353.52)"/><path d="M348.7,447a7.14,7.14,0,0,0,1.36,4.46,4.51,4.51,0,0,0,3.6,1.74,8.63,8.63,0,0,0,4.27-1.18,8.51,8.51,0,0,0,3.14-3.05,9.33,9.33,0,0,0,1-3.1,28.91,28.91,0,0,0,.32-4.68v-2.89a52.6,52.6,0,0,0-6,.79,14.57,14.57,0,0,0-3.76,1.29,6.85,6.85,0,0,0-3.9,6.62M363,453.18a7.51,7.51,0,0,1-.61-3.19l0-.54-.37.41a15.19,15.19,0,0,1-1.27,1.27,17.08,17.08,0,0,1-1.45,1.12,12.41,12.41,0,0,1-3.46,1.86,11.75,11.75,0,0,1-3.74.52,8.38,8.38,0,0,1-5.6-1.69,7,7,0,0,1-1.75-2.53,8.68,8.68,0,0,1-.65-3.28c0-4.33,2.68-7.11,8.11-8.35,1.44-.33,2.95-.61,4.55-.82s3.42-.39,5.45-.53l.21-3.77a20.31,20.31,0,0,0-.19-3.13,7.2,7.2,0,0,0-.63-2.1c-.8-1.57-2.45-2.32-4.82-2.32-3.81,0-5.87,1.79-6.09,5.39a4.8,4.8,0,0,1-.15,1.22.94.94,0,0,1-.37.53,3.48,3.48,0,0,1-1.85.41c-1.86,0-2.56-.53-2.53-1.46a4.88,4.88,0,0,1,1-2.83,8.39,8.39,0,0,1,2.74-2.39,16.72,16.72,0,0,1,8.12-1.78c3.62,0,6.05.83,7.38,2.4a6.4,6.4,0,0,1,1.19,2.47,15.06,15.06,0,0,1,.39,3.76v.32l0,1.47-.08,3.9-.06,5.35-.06,2.59c0,1.22.06,2.16.15,3.2s.44,2.14,1.25,2.44a8.55,8.55,0,0,0,3.21.45,7.35,7.35,0,0,0,2.61-.41,2.22,2.22,0,0,0,1.27-1.76,20,20,0,0,0,.24-3.86V432.4c0-2-.21-3.5-.79-4.26a3.74,3.74,0,0,0-3.1-1v-.8l8.06-.59v6.43l.42-.76a11.86,11.86,0,0,1,4-4.52,10.54,10.54,0,0,1,5.67-1.33c3.42,0,5.8,1.09,7.2,3.39a7.69,7.69,0,0,1,1.1,2.77,20.63,20.63,0,0,1,.33,4.15v11.68a20.35,20.35,0,0,0,.22,3.88,2.16,2.16,0,0,0,1.26,1.75,10.67,10.67,0,0,0,3,.39,6.8,6.8,0,0,0,2.41-.4,2.24,2.24,0,0,0,1.23-1.76,20.3,20.3,0,0,0,.22-3.86V420.06a17.31,17.31,0,0,0-.21-3.49A1.91,1.91,0,0,0,404.9,415a8.32,8.32,0,0,0-2.57-.3v-.81l8.39-.43c-.11,1.87-.18,3.77-.24,5.72s-.08,3.8-.08,5.32V443l9.23-10.13c1.31-1.44,2-2.66,2-3.63.06-1.36-1.3-2-3.55-2.08v-.81h12v.82a8.49,8.49,0,0,0-1.88.4,8.69,8.69,0,0,0-1.78.85,17.46,17.46,0,0,0-1.55,1,14.69,14.69,0,0,0-1.51,1.36q-.87.89-2.52,2.67l-3,3.29,8,12.56a12,12,0,0,0,2.52,3.13,5.9,5.9,0,0,0,2.8,1.11v.82h-7.3c-.2-.4-.48-.93-.83-1.58l-1.16-2.12L421,449l-5.91-9.63-4.64,5.2v2.91a21.38,21.38,0,0,0,.21,3.86,2.24,2.24,0,0,0,1.25,1.76,7.27,7.27,0,0,0,2.59.41v.79H389.78v-.79c1.67-.05,2.82-.32,3.28-.93a2.83,2.83,0,0,0,.42-.81,4.75,4.75,0,0,0,.19-1.17c0-.38.06-.93.1-1.64s.06-1.21.07-1.48V436.18a14.82,14.82,0,0,0-.93-6.18,5.25,5.25,0,0,0-5.16-3.12,7.42,7.42,0,0,0-6.56,3.88,12.54,12.54,0,0,0-1.43,3.33,13.89,13.89,0,0,0-.52,3.67v9.76a20.35,20.35,0,0,0,.22,3.88,2.16,2.16,0,0,0,1.26,1.75,7.51,7.51,0,0,0,2.63.4v.79H371.22c-1.08,0-3.13.09-4.15.08s-1.58-.13-2.55-.2c-.86-.26-1.22-.48-1.51-1" transform="translate(-100.27 -353.52)"/><path d="M111.26,435.75h2.6q4.68,0,6.9-2.22a8.23,8.23,0,0,0,1.82-3.34,16.44,16.44,0,0,0,.62-4.71q0-10-8.74-10h-3.2Zm0,1.57v10.05a14.35,14.35,0,0,0,.28,3.59,2.1,2.1,0,0,0,1.34,1.55,10.28,10.28,0,0,0,3.18.43v1.4H100.27v-1.4a9.15,9.15,0,0,0,3-.43,2.06,2.06,0,0,0,1.25-1.55,15.62,15.62,0,0,0,.26-3.59V420.94a17.18,17.18,0,0,0-.25-3.6,2.1,2.1,0,0,0-1.2-1.56,8.46,8.46,0,0,0-2.85-.46v-1.41h15q7.6,0,11.14,2.69t3.5,8.56q0,8.2-6.4,10.75a19.37,19.37,0,0,1-4.27,1,43.63,43.63,0,0,1-5.77.38Z" transform="translate(-100.27 -353.52)"/><path d="M137.25,437.45h11.49c0-1.66-.13-3-.26-4a13.3,13.3,0,0,0-.62-2.72q-1.46-4.25-4.47-4.21-3.39,0-5,4.74a17.77,17.77,0,0,0-.68,2.68c-.17,1-.31,2.14-.41,3.52M155.57,439H137.2a34.85,34.85,0,0,0,.34,4.94,15.83,15.83,0,0,0,1,3.63q2.3,5.34,7.07,5.34a8.43,8.43,0,0,0,4.92-1.6,12,12,0,0,0,3.66-4.55l1.3.86a13.89,13.89,0,0,1-4.69,5.62,12.08,12.08,0,0,1-6.75,1.77c-4.18-.06-8-1.39-10.44-4s-3.63-6.21-3.68-10.76,1.23-8.21,3.56-10.88,6-4,10-4.09a13.08,13.08,0,0,1,7.06,1.82,10.44,10.44,0,0,1,4,5.29,13,13,0,0,1,.65,2.65,37.55,37.55,0,0,1,.29,4" transform="translate(-100.27 -353.52)"/><path d="M156.74,426l10.19-.7c.06,1,.1,1.87.13,2.56s0,1.3,0,1.83v1.63q3.32-6.08,8-6.13a4.94,4.94,0,0,1,3.3,1.19,3.89,3.89,0,0,1,1.31,2.93,3.05,3.05,0,0,1-1.1,2.39,4.39,4.39,0,0,1-2.81.92,2.22,2.22,0,0,1-2.54-1.74,4.34,4.34,0,0,0-.63-1.51,1.07,1.07,0,0,0-1-.38h-.1c-1.07.09-2.08.93-3,2.55a10,10,0,0,0-1,2.66,15.26,15.26,0,0,0-.33,3.35v10a16.71,16.71,0,0,0,.23,3.54,2,2,0,0,0,1.2,1.49,9.64,9.64,0,0,0,2.91.39v1.3H156.53V453a7.27,7.27,0,0,0,2.73-.36,2,2,0,0,0,1.15-1.52,16.08,16.08,0,0,0,.24-3.54v-15c0-2.23-.17-3.68-.67-4.35s-1.58-1-3.24-.9Z" transform="translate(-100.27 -353.52)"/><path d="M191.83,425.34l.06,5.37a10.57,10.57,0,0,1,9.43-5.48c4.16,0,6.73,1.87,7.7,5.7a12.14,12.14,0,0,1,4-4.33,9.86,9.86,0,0,1,5.29-1.37q4.78,0,7,3.15a7.58,7.58,0,0,1,1.26,2.88,20.86,20.86,0,0,1,.36,4.44v11.92a16.08,16.08,0,0,0,.24,3.54,2,2,0,0,0,1.15,1.52,7.27,7.27,0,0,0,2.73.36v1.3H216.44V453a6.73,6.73,0,0,0,2.62-.36,2,2,0,0,0,1.11-1.52,16.88,16.88,0,0,0,.23-3.54V435.75c0-2.85-.34-4.9-1.05-6.17a3.58,3.58,0,0,0-3.45-1.85q-2.86-.06-4.82,3a9.64,9.64,0,0,0-1.69,5.47v11.44a16.74,16.74,0,0,0,.24,3.54,2,2,0,0,0,1.12,1.52,6.93,6.93,0,0,0,2.66.36v1.3H198.88V453a6.77,6.77,0,0,0,2.62-.36,2,2,0,0,0,1.1-1.52,16.74,16.74,0,0,0,.24-3.54V435.7q0-8.06-4.4-8a5.87,5.87,0,0,0-4.62,2.61,10.65,10.65,0,0,0-1.93,6.28v11a17,17,0,0,0,.23,3.56,2,2,0,0,0,1.11,1.52,7.19,7.19,0,0,0,2.61.34v1.3H181.15V453a7.9,7.9,0,0,0,2.74-.34,2,2,0,0,0,1.15-1.52,17,17,0,0,0,.23-3.56V432.55c.06-2.2-.16-3.63-.66-4.28s-1.61-1-3.35-.92V426Z" transform="translate(-100.27 -353.52)"/><path d="M269.67,427.82v18.11a26.07,26.07,0,0,0,.13,2.92,8.93,8.93,0,0,0,.41,2,3.32,3.32,0,0,0,1.06,1.45,2.69,2.69,0,0,0,1.6.55,6.44,6.44,0,0,0,3.79-1.68l.76,1.35A11.14,11.14,0,0,1,270,455.2q-4.5-.07-6.13-3a6.42,6.42,0,0,1-.5-1.48,14.64,14.64,0,0,1-.25-2.22c0-.94-.07-2.2-.06-3.78V427.82H260V426.2a6.77,6.77,0,0,0,3-.75,6,6,0,0,0,2.15-2.13,10.9,10.9,0,0,0,1.18-2.45,21.61,21.61,0,0,0,.82-3.35l2.71-.27q0,1.08-.09,2.19c0,.73,0,1.62-.05,2.66s0,2.37,0,4h6.56v1.73Z" transform="translate(-100.27 -353.52)"/><path d="M249.83,442.87v-4.18c-3.88.27-6.64,1-8.26,2.15a6.16,6.16,0,0,0-2.37,5.49,8.32,8.32,0,0,0,1.2,4.65,3.78,3.78,0,0,0,3.19,1.75,5.46,5.46,0,0,0,3.06-1,6.33,6.33,0,0,0,2.2-2.62,8.17,8.17,0,0,0,.75-2.51,24.54,24.54,0,0,0,.23-3.77m10.11,10.33v1.14c-1.59.11-2.23.11-3.89.11a11.33,11.33,0,0,1-3.83-.45,3.72,3.72,0,0,1-1.62-1,3.18,3.18,0,0,1-.72-2.24,14.45,14.45,0,0,1-4.37,3.34,11.39,11.39,0,0,1-4.9,1.06,8.6,8.6,0,0,1-6.1-2.16,7.82,7.82,0,0,1-2.25-5.81q0-7,8.68-8.68a66.68,66.68,0,0,1,8.89-1v-3.52q0-4.23-.9-5.87a3.38,3.38,0,0,0-3.33-1.55,3.72,3.72,0,0,0-3.63,1.84,4.79,4.79,0,0,0-.58,1.5,17.52,17.52,0,0,0-.29,2.35,2.62,2.62,0,0,1-.84,2.06,4,4,0,0,1-2.47.59q-3.76,0-3.79-2.49a4.86,4.86,0,0,1,.89-2.74,7.86,7.86,0,0,1,2.47-2.3,16.61,16.61,0,0,1,8.89-2.06c3.73,0,6.41.72,8,2.22a6.06,6.06,0,0,1,1.61,2.63,13.44,13.44,0,0,1,.5,4.1l-.05,4.71-.05,4.71c0,1.55-.07,2.53-.06,2.93a28.62,28.62,0,0,0,.19,4.28,2.38,2.38,0,0,0,.89,1.79,4.9,4.9,0,0,0,2.64.58" transform="translate(-100.27 -353.52)"/><path d="M296.5,442.87v-4.18c-3.88.27-6.64,1-8.26,2.16s-2.42,3-2.37,5.49a8.29,8.29,0,0,0,1.2,4.64,3.76,3.76,0,0,0,3.19,1.75,5.42,5.42,0,0,0,3.06-1,6.39,6.39,0,0,0,2.2-2.62,8.33,8.33,0,0,0,.75-2.52,24.54,24.54,0,0,0,.23-3.77m10.11,10.33v1.14c-1.58.11-2.22.11-3.89.11a11.11,11.11,0,0,1-3.83-.45,3.63,3.63,0,0,1-1.62-1,3.15,3.15,0,0,1-.72-2.23,14.28,14.28,0,0,1-4.37,3.33,11.24,11.24,0,0,1-4.9,1.06,8.6,8.6,0,0,1-6.1-2.16,7.8,7.8,0,0,1-2.25-5.81q0-7,8.68-8.67a65.07,65.07,0,0,1,8.89-1v-3.53c0-2.82-.27-4.77-.9-5.87a3.38,3.38,0,0,0-3.33-1.55,3.74,3.74,0,0,0-3.63,1.84,4.89,4.89,0,0,0-.58,1.5,17.52,17.52,0,0,0-.29,2.35,2.62,2.62,0,0,1-.84,2.06,3.93,3.93,0,0,1-2.47.6q-3.76,0-3.79-2.49a4.91,4.91,0,0,1,.89-2.75,8,8,0,0,1,2.47-2.3,16.61,16.61,0,0,1,8.89-2.06c3.73,0,6.41.72,8,2.23a6,6,0,0,1,1.61,2.62,13.77,13.77,0,0,1,.51,4.1l-.06,4.71-.05,4.72c-.05,1.54-.07,2.52-.06,2.92a28.54,28.54,0,0,0,.19,4.28,2.36,2.36,0,0,0,.89,1.79,4.9,4.9,0,0,0,2.64.58" transform="translate(-100.27 -353.52)"/><polygon class="cls-1" points="317.96 33.01 317.85 35.1 357.9 82.08 359.34 82.32 359.52 82.23 360.23 80.93 343.14 23.75 340.24 21.8 317.96 33.01"/><polygon class="cls-2" points="317.85 35.1 357.9 82.08 359.34 82.32 329.8 37.38 317.85 35.1"/><polygon class="cls-3" points="340.24 21.8 330.03 33.82 334.2 35.64 343.14 23.75 343.14 23.75 340.24 21.8"/><polygon class="cls-4" points="317.85 35.1 329.8 37.38 330.03 33.82 317.95 33.01 317.85 35.1"/><polygon class="cls-4" points="334.2 35.64 359.52 82.23 360.23 80.92 343.14 23.75 334.2 35.64"/><polygon class="cls-5" points="382.23 20.66 408.13 32.57 408.18 35.93 365.68 100.31 363.74 100.82 363.45 100.69 362.85 99.24 379.98 21.92 382.23 20.66"/><polygon class="cls-6" points="390.93 37.4 363.74 100.82 365.68 100.31 408.18 35.93 390.93 37.4"/><polygon class="cls-7" points="379.97 21.92 362.84 99.24 363.45 100.69 386.04 34.71 379.97 21.92"/><polygon class="cls-8" points="389.95 32.81 390.93 37.4 408.18 35.93 408.13 32.57 408.13 32.57 389.95 32.81"/><polygon class="cls-6" points="379.98 21.92 386.03 34.7 389.95 32.81 382.23 20.66 379.98 21.92"/><polygon class="cls-9" points="342.67 2.34 343.71 0.36 376.86 0 379 2.23 363.12 55.3 362.11 55.88 362.08 55.88 360.99 55.15 342.67 2.34"/><polygon class="cls-10" points="342.67 2.34 355.52 8.74 357.91 5.91 343.7 0.36 342.67 2.34"/><polygon class="cls-11" points="342.67 2.34 360.99 55.15 362.07 55.88 355.52 8.74 342.67 2.34 342.67 2.34"/><polygon class="cls-10" points="361.75 8.75 362.11 55.88 363.12 55.3 379 2.23 361.75 8.75"/><polygon class="cls-12" points="376.86 0 357.91 5.92 361.75 8.74 379 2.23 376.86 0 376.86 0"/></svg>