<svg id="Layer_2" data-name="Layer 2" xmlns="http://www.w3.org/2000/svg" viewBox="0 0 269.54 117.99"><defs><style>.cls-1{fill:#ed4c2f;}.cls-2{fill:#fff;}</style></defs><path class="cls-1" d="M93.44,87.56,12.93,98.29s-3.56.43-3.56,4.7v76.46s.47,9,10.72,9h91.24s8.14-2,8.14-10.08V115.21s.16-8.95-10.58-8.95h-88a5.62,5.62,0,0,1-4.29-4.17c-.26-1.42.31-1.56,1.81-1.56h80.8v-8.7S98.93,87.15,93.44,87.56Z" transform="translate(-9.37 -87.53)"/><path class="cls-2" d="M66.05,175.43c-6.67,0-11.59-2.72-18.84-9.9a3.29,3.29,0,0,1,4.63-4.68c7.64,7.55,11.18,9.43,17.28,7.77,3.54-1,6.73-5.48,6.91-10.66.15-4-2.7-6.66-8.44-7.81-10.32-2.06-16.41-6-18.1-11.73-1.36-4.61.42-9.75,4.9-14.11l.18-.16c9.62-8,20.79-2.05,25.35,2.24a3.29,3.29,0,0,1-4.5,4.8c-.39-.36-9-8.21-16.53-2.07-2.56,2.54-3.71,5.31-3.08,7.44.91,3.1,5.55,5.63,13.07,7.14,12.77,2.55,13.86,11,13.73,14.5-.27,7.64-6.66,16.2-12.66,17A32,32,0,0,1,66.05,175.43Z" transform="translate(-9.37 -87.53)"/><path class="cls-1" d="M153.33,105.81a17.91,17.91,0,0,0-4.68-2c-3.39-1-5.85-2.22-7-3.81-1-1.38-1-3.18.2-5.47.72-1.38,2.43-2.26,4.65-2.43a15.42,15.42,0,0,1,8,1.88,1.49,1.49,0,1,0,1.34-2.67,18.47,18.47,0,0,0-9.62-2.22c-3.26.25-5.81,1.67-7.06,4-1.88,3.47-1.76,6.32,0,8.7,1.63,2.13,4.6,3.76,8.65,4.89a16.68,16.68,0,0,1,4,1.67,7.31,7.31,0,0,1,3.14,3.3,5.36,5.36,0,0,1,.21,3.6,8.07,8.07,0,0,1-.8,1.76c0,.08-.08.16-.16.29a6.39,6.39,0,0,1-5.56,2.72c-2.64,0-5.86-1-9.28-3.14A14.35,14.35,0,0,1,138,116a1.51,1.51,0,0,0-1.68,2.51c.55.38,1,.67,1.43,1,3.93,2.39,7.65,3.56,10.82,3.56a9.25,9.25,0,0,0,8.07-4,2.8,2.8,0,0,1,.25-.41A10.55,10.55,0,0,0,158,116.1a8.08,8.08,0,0,0-.33-5.6A10.45,10.45,0,0,0,153.33,105.81Z" transform="translate(-9.37 -87.53)"/><path class="cls-1" d="M176.37,102.51a9.52,9.52,0,0,0-5.19.17,14,14,0,0,0-5.18,2.93V90.51a1.51,1.51,0,0,0-3,0v31.06a1.51,1.51,0,0,0,3,0V110l.08-.08a12.94,12.94,0,0,1,6-4.35,6.37,6.37,0,0,1,3.55-.12A4.36,4.36,0,0,1,178,107a5.81,5.81,0,0,1,.92,3.38v11.12a1.51,1.51,0,1,0,3,0V110.41a8.59,8.59,0,0,0-1.51-5.1A7.25,7.25,0,0,0,176.37,102.51Z" transform="translate(-9.37 -87.53)"/><path class="cls-1" d="M196.68,102.22a10.41,10.41,0,1,0,7.36,3A10.42,10.42,0,0,0,196.68,102.22ZM202,117.9a7.57,7.57,0,0,1-5.27,2.17A7.43,7.43,0,1,1,202,117.9Z" transform="translate(-9.37 -87.53)"/><path class="cls-1" d="M222.06,102.22a10.39,10.39,0,0,0-7.36,3,2.57,2.57,0,0,0-.33.33v-1.88a1.51,1.51,0,0,0-3,0v29.6a1.51,1.51,0,1,0,3,0V119.65a2.69,2.69,0,0,1,.33.34,10.41,10.41,0,1,0,7.36-17.77Zm5.23,15.68a7.48,7.48,0,0,1-10.54,0,7.44,7.44,0,1,1,10.54,0Z" transform="translate(-9.37 -87.53)"/><path class="cls-1" d="M253.21,105a9.16,9.16,0,0,0-6.61-2.76A8.9,8.9,0,0,0,240,105c-3.6,3.89-3.56,8.07-2.14,12.29a8.19,8.19,0,0,0,3.52,4.3,9.64,9.64,0,0,0,5.56,1.47,19.26,19.26,0,0,0,6.94-1.59,1.5,1.5,0,0,0-1.17-2.76,15.32,15.32,0,0,1-5.82,1.38,7.18,7.18,0,0,1-3.92-1,6.38,6.38,0,0,1-2.35-2.93,13.94,13.94,0,0,1-.67-2.76h13.84c.76,0,3.22.17,1.93-4A10.22,10.22,0,0,0,253.21,105Zm-13.09,5.35a7.72,7.72,0,0,1,2-3.22,6.36,6.36,0,0,1,9,0,8.7,8.7,0,0,1,2,3.22Z" transform="translate(-9.37 -87.53)"/><path class="cls-1" d="M278.54,109.33A10,10,0,0,0,276,105a9.12,9.12,0,0,0-6.6-2.76,8.94,8.94,0,0,0-6.61,2.76c-3.59,3.89-3.55,8.07-2.13,12.29a8.22,8.22,0,0,0,3.51,4.3,9.68,9.68,0,0,0,5.56,1.47,19.26,19.26,0,0,0,6.94-1.59,1.5,1.5,0,1,0-1.17-2.76,15.28,15.28,0,0,1-5.81,1.38,7.22,7.22,0,0,1-3.93-1,6.36,6.36,0,0,1-2.34-2.93,13.94,13.94,0,0,1-.67-2.76h13.84C277.37,113.38,279.84,113.55,278.54,109.33Zm-15.59,1a7.7,7.7,0,0,1,2-3.22,6.36,6.36,0,0,1,9,0,8.72,8.72,0,0,1,2,3.22Z" transform="translate(-9.37 -87.53)"/><path class="cls-1" d="M158.31,130.5H136.66v57.9h8.79V171.12h13.8a25.87,25.87,0,0,0,13.21-3.48c4.73-2.8,9.47-7.74,9.47-16.28a19.23,19.23,0,0,0-8.58-16.24A26,26,0,0,0,158.31,130.5Zm2.76,31.35H145.45V139.16h14.09a5.85,5.85,0,0,1,.73,0c2.15.24,11.53,1.86,11.53,11.92C171.8,161.85,161.07,161.85,161.07,161.85Z" transform="translate(-9.37 -87.53)"/><path class="cls-1" d="M216.73,147.25v4.07a20.71,20.71,0,1,0,0,32.16v4.64h8.78V147.25Zm-13,33.18a13,13,0,1,1,13-13.05v0A13,13,0,0,1,203.7,180.43Z" transform="translate(-9.37 -87.53)"/><polygon class="cls-1" points="220.09 59.16 231.84 59.16 245.62 85.54 258.92 59.16 269.54 59.16 237.93 117.99 227.59 117.99 239.64 96.15 220.09 59.16"/></svg>